<svg xmlns="http://www.w3.org/2000/svg" width="723" height="706" viewBox="0 0 723.4 706.1"><style>.a{fill:#FFF;}.b{fill:#FFE100;}.c{fill:#00A1E9;}</style><path d="M117.5 0h243.2H603.9c0 131.4 0 175.6 0 307 0 148.4-136.7 285.8-242.7 285.8 -0.2 0-0.3 0-0.5 0 -0.2 0-0.3 0-0.5 0 -106 0-242.7-137.4-242.7-285.8C117.5 175.6 117.5 131.4 117.5 0z"/><path d="M125.5 8c0 99.7 0 199.3 0 299 0 71.2 32.6 140.8 79.6 193.1 21.7 24.3 47.7 46.1 76.3 61.8 23.8 13.1 51.4 22.8 78.8 22.8 0.2 0 0.3 0 0.5 0 0.2 0 0.3 0 0.5 0 27.4 0 55-9.7 78.8-22.8 28.6-15.7 54.6-37.5 76.3-61.8 46.9-52.3 79.6-122 79.6-193.1 0-99.7 0-199.3 0-299H125.5L125.5 8z" class="a"/><path d="M125.5 8c0 84 0 168.1 0 252.1h470.4c0-84 0-168.1 0-252.1H125.5z" class="b"/><polygon points="162.9 607.4 0 607.4 48.7 647.1 0 686.5 162.9 686.5 "/><polygon points="154.8 615.4 22.5 615.4 61.4 647.2 22.7 678.5 154.8 678.5 " class="b"/><polygon points="558.6 607.4 723.4 607.4 673.3 647.1 723.4 686.5 558.6 686.5 "/><polygon points="566.6 615.4 566.6 678.5 700.2 678.5 660.3 647.2 700.3 615.4 " class="b"/><polygon points="114.7 623.3 162.9 607.4 162.9 652.8 114.7 656.6 "/><polygon points="122.7 629.1 122.7 647.9 154.8 645.3 154.8 618.5 " class="b"/><polygon points="606.8 623.3 558.6 607.4 558.6 652.8 606.8 656.6 "/><polygon points="598.7 629.1 566.6 618.5 566.6 645.3 598.7 647.9 " class="b"/><polygon points="606.8 623.3 415.6 623.3 392.9 623.3 114.7 623.3 114.7 706.1 392.9 706.1 415.6 706.1 606.8 706.1 "/><rect x="122.7" y="631.4" width="476" height="66.7" class="b"/><path d="M146 670.2v-7h10.9v16.6c-1.1 1.7-2.6 3.2-4.6 4.5 -2 1.3-4 1.9-6.1 1.9 -2.6 0-4.9-0.9-6.9-2.7 -1.9-1.8-3.4-4.5-4.4-7.9 -1-3.4-1.5-7.1-1.5-11.1 0-4.3 0.5-8.2 1.6-11.6 1.1-3.4 2.7-6 4.8-7.8 1.6-1.4 3.6-2.1 6-2.1 3.1 0 5.5 1.1 7.3 3.3 1.8 2.2 2.9 5.2 3.4 9l-5 1.6c-0.4-2.1-1-3.7-2-4.9 -1-1.2-2.2-1.8-3.6-1.8 -2.2 0-4 1.2-5.3 3.5 -1.3 2.3-2 5.8-2 10.4 0 5 0.7 8.7 2 11.2 1.3 2.5 3.1 3.7 5.2 3.7 1.1 0 2.1-0.4 3.2-1 1.1-0.7 2-1.5 2.7-2.5v-5.3L146 670.2 146 670.2zM161.6 685.6v-41.8h18.6v7.1h-13.5v9.3h12.6v7h-12.6v11.4h14v7H161.6L161.6 685.6zM184.8 685.6v-41.8h7.6l4.5 28.5 4.5-28.5h7.6v41.8h-4.7v-32.9l-5 32.9h-4.9l-5-32.9v32.9H184.8L184.8 685.6zM236.6 685.6h-5.5l-2.2-9.5h-10l-2.1 9.5H211.5l9.8-41.8h5.3L236.6 685.6 236.6 685.6zM227.3 669.1l-3.5-15.5 -3.4 15.5H227.3L227.3 669.1zM239.3 685.6v-41.8h5.1v16.4h9.9v-16.4h5.1v41.8h-5.1V667.3h-9.9v18.3H239.3L239.3 685.6zM274.3 685.6v-41.8h10.7c2.7 0 4.6 0.4 5.8 1.1 1.2 0.8 2.2 2.1 2.9 4 0.7 1.9 1.1 4.1 1.1 6.6 0 3.1-0.6 5.7-1.7 7.8 -1.1 2-2.8 3.3-5 3.9 1.1 1.1 2 2.2 2.7 3.5 0.7 1.3 1.7 3.5 2.9 6.8l3.1 8.2h-6l-3.7-9.1c-1.3-3.2-2.2-5.3-2.7-6.1 -0.5-0.8-1-1.4-1.5-1.7 -0.5-0.3-1.4-0.5-2.5-0.5h-1V685.6L274.3 685.6 274.3 685.6zM279.4 661.5h3.7c2.4 0 3.9-0.2 4.6-0.5 0.6-0.3 1.1-0.9 1.4-1.8 0.3-0.8 0.5-1.9 0.5-3.1 0-1.4-0.2-2.5-0.7-3.4 -0.4-0.9-1.1-1.4-1.9-1.6 -0.4-0.1-1.6-0.1-3.7-0.1h-3.9L279.4 661.5 279.4 661.5zM299.4 685.6v-41.8h5.1v41.8H299.4L299.4 685.6zM309.3 685.6v-41.8h8.1c3.1 0 5.1 0.2 6 0.6 1.4 0.6 2.6 2 3.6 4.1 1 2.1 1.5 4.8 1.5 8.1 0 2.6-0.3 4.7-0.8 6.5 -0.6 1.8-1.3 3.1-2.1 4.1 -0.9 1-1.7 1.7-2.6 2 -1.2 0.4-3 0.6-5.2 0.6h-3.3v15.8h-5.1V685.6L309.3 685.6zM314.4 650.9v11.9h2.8c2 0 3.3-0.2 4-0.6 0.7-0.4 1.2-1.1 1.6-2.1 0.4-0.9 0.6-2 0.6-3.2 0-1.5-0.3-2.8-0.8-3.8 -0.5-1-1.2-1.6-2-1.8 -0.6-0.2-1.8-0.3-3.6-0.3H314.4L314.4 650.9zM352.7 685.6l-10-41.8h-5.3l-9.8 41.8h5.4l2.1-9.5h10l2.2 9.5H352.7L352.7 685.6zM343.3 669.1h-6.8l3.4-15.5L343.3 669.1 343.3 669.1zM355.4 685.6v-41.8h5.1v16.4h9.9v-16.4h5.1v41.8h-5.1V667.3h-9.9v18.3H355.4L355.4 685.6zM390.5 685.6v-41.4h5.1v34.4h12.6v7H390.5L390.5 685.6zM410.7 665c0-4.3 0.4-7.8 1.1-10.7 0.6-2.1 1.3-4 2.3-5.7 1-1.7 2.1-2.9 3.2-3.8 1.6-1.1 3.4-1.7 5.4-1.7 3.7 0 6.6 1.9 8.9 5.7 2.2 3.8 3.3 9.1 3.3 15.9 0 6.8-1.1 12-3.3 15.8 -2.2 3.8-5.1 5.7-8.8 5.7 -3.7 0-6.7-1.9-8.9-5.7C411.8 676.8 410.7 671.6 410.7 665L410.7 665zM415.9 664.7c0 4.7 0.7 8.3 2 10.8 1.3 2.4 3 3.7 5 3.7 2 0 3.7-1.2 5-3.6 1.3-2.4 1.9-6.1 1.9-10.9 0-4.8-0.6-8.4-1.9-10.7 -1.3-2.4-2.9-3.5-5-3.5 -2.1 0-3.8 1.2-5 3.6C416.5 656.3 415.9 659.9 415.9 664.7L415.9 664.7zM439 685.6v-41.8h5.1v16.4h9.9v-16.4h5.1v41.8h-5.1V667.3h-9.9v18.3H439L439 685.6zM483 643.8h5v26.5c0 3.5-0.2 6.1-0.5 8 -0.5 2.4-1.4 4.4-2.7 5.9 -1.3 1.5-3 2.2-5.1 2.2 -2.5 0-4.4-1.1-5.7-3.5 -1.3-2.3-2-5.7-2-10.2l4.8-0.9c0.1 2.4 0.3 4.1 0.6 5.1 0.5 1.5 1.4 2.2 2.5 2.2 1.1 0 1.9-0.5 2.4-1.6 0.5-1.1 0.7-3.3 0.7-6.7V643.8L483 643.8zM493.2 685.6v-41.8h5.1v41.8H493.2L493.2 685.6zM503.2 685.6v-41.8h4.9l10.3 27.9v-27.9h4.7v41.8h-5.1l-10.1-27.3v27.3H503.2L503.2 685.6zM551 685.6h-5.5l-2.2-9.5H533.3l-2.1 9.5h-5.4l9.8-41.8h5.3L551 685.6 551 685.6zM541.7 669.1l-3.5-15.5 -3.4 15.5H541.7L541.7 669.1zM555.3 685.6h5.5l5-31.2 5 31.2h5.4l6.1-41.8h-5.1l-3.8 29.2 -4.4-29.2h-6l-4.6 28.7 -3.8-28.7h-5.2L555.3 685.6 555.3 685.6zM584.6 685.6v-41.8h5.1v41.8H584.6z"/><path d="M140.1 390.7c0.4 1.2 0.9 2.5 1.3 3.7C140.9 393.2 140.5 392 140.1 390.7z" class="c"/><path d="M226.9 522.3c-1.6-1.5-3.2-3-4.8-4.5C223.7 519.3 225.3 520.8 226.9 522.3z" class="c"/><path d="M127.9 340.6c-0.1-0.9-0.2-1.7-0.3-2.6C127.7 338.9 127.8 339.8 127.9 340.6z" class="c"/><path d="M127.1 334.4c-0.1-0.9-0.2-1.9-0.3-2.8C126.9 332.5 127 333.5 127.1 334.4z" class="c"/><path d="M184.5 474.8c-0.4-0.6-0.9-1.2-1.3-1.8C183.6 473.6 184.1 474.2 184.5 474.8z" class="c"/><path d="M177.2 464.5c-0.5-0.7-1-1.4-1.4-2.1C176.3 463.1 176.7 463.8 177.2 464.5z" class="c"/><path d="M188.3 479.8c-0.2-0.2-0.3-0.5-0.5-0.7C187.9 479.4 188.1 479.6 188.3 479.8z" class="c"/><path d="M180.8 469.7c-0.5-0.7-0.9-1.4-1.4-2C179.9 468.3 180.3 469 180.8 469.7z" class="c"/><path d="M126.5 328.2c-0.1-1-0.2-2-0.2-3C126.3 326.3 126.4 327.2 126.5 328.2z" class="c"/><path d="M578 400.1c0.4-1.1 0.9-2.3 1.3-3.4C578.8 397.8 578.4 399 578 400.1z" class="c"/><path d="M580.2 394.1c0.4-1.2 0.8-2.3 1.2-3.5C581 391.8 580.6 393 580.2 394.1z" class="c"/><path d="M575.6 406c0.5-1.1 0.9-2.2 1.3-3.3C576.5 403.8 576.1 404.9 575.6 406z" class="c"/><path d="M514.8 337c-17.1-5.5-34.9-1-57.1 4.7 -4.6 1.2-9.5 2.4-15.3 3.8 -9.6 2.3-19.3 1.9-29.5 0 -9.5-1.8-19.2-4.8-29.9-8.2 -8.2-2.6-16.7-3.8-25.3-3.6 -9.5 0.1-19.1 1.8-28.3 4.5 -10.8 3.2-21.2 5.5-31.7 6.2 -10.8 0.7-21.7-0.2-33.1-3.4 -17.2-4.8-32-6.1-46.8-5.1 -15.3 1-30.7 4.4-48.7 8.6 -15.8 3.8-27.8 0.2-39-3l-2.1-0.6c2.4 16.7 6.4 33.2 11.9 49.2 7.5 2.1 15.5 3.8 24.3 1.7 19.1-4.6 35.6-8.1 52.3-9.2 17.1-1.1 34.2 0.3 54 5.9 8.9 2.5 17.4 3.2 25.8 2.6 8.8-0.6 17.7-2.6 27.1-5.4 11-3.3 22.5-5.2 34.2-5.4 10.8-0.1 21.6 1.3 32.1 4.7 10 3.2 19 6 27.1 7.5 7.4 1.4 14.2 1.7 20.7 0.1 4.7-1.1 9.9-2.4 14.9-3.7 25.6-6.5 46.1-11.7 69.1-4.2 22.2 7.2 40.7 7.9 60.1 5.2 5.3-15.7 9.3-31.8 11.7-48.1C567.9 346.4 544.7 346.7 514.8 337z" class="c"/><path d="M142.3 396.9c0.4 1.2 0.9 2.3 1.3 3.5C143.2 399.3 142.7 398.1 142.3 396.9z" class="c"/><path d="M573.2 411.9c0.5-1.1 0.9-2.2 1.4-3.3C574.1 409.7 573.6 410.8 573.2 411.9z" class="c"/><path d="M144.6 403.1c0.4 1.1 0.9 2.2 1.3 3.3C145.5 405.3 145.1 404.2 144.6 403.1z" class="c"/><path d="M147.2 409.3c0.4 1.1 0.9 2.1 1.3 3.1C148 411.4 147.6 410.3 147.2 409.3z" class="c"/><path d="M514.8 405.3c-17.1-5.5-34.9-1-57.1 4.7 -4.6 1.2-9.5 2.4-15.3 3.8 -9.6 2.3-19.3 1.9-29.5 0 -9.5-1.7-19.2-4.8-29.9-8.2 -8.2-2.6-16.7-3.8-25.3-3.6 -9.5 0.1-19.1 1.8-28.3 4.5 -10.8 3.2-21.2 5.5-31.7 6.2 -10.8 0.7-21.7-0.2-33.1-3.4 -17.2-4.8-32-6.1-46.8-5.1 -15.3 1-30.7 4.4-48.7 8.6 -7.3 1.8-13.9 1.9-19.9 1.3 7.2 16.3 15.8 32 25.6 46.8 17-4.2 32-7.5 47.3-8.6 16.4-1.1 32.8 0.3 51.7 5.9 8.3 2.5 16.3 3.2 24.2 2.6 8.2-0.6 16.6-2.5 25.5-5.3 10.5-3.3 21.6-5.3 32.8-5.4 10.4-0.1 20.8 1.3 30.9 4.7 9.4 3.2 18 6 25.7 7.5 6.9 1.4 13.3 1.7 19.2 0.2 4.3-1.1 9.3-2.4 14.2-3.7 24.5-6.6 44.1-11.8 66.3-4.2 12.2 4.2 23.1 6.1 33.8 6.5 10.1-15.3 18.9-31.5 26.3-48.3C554.7 414.1 536.5 412.3 514.8 405.3z" class="c"/><path d="M126 322c-0.1-1-0.1-2-0.2-3C125.9 320 126 321 126 322z" class="c"/><path d="M593.9 338c-0.1 1.1-0.3 2.2-0.4 3.3C593.6 340.1 593.7 339.1 593.9 338z" class="c"/><path d="M231.8 526.7c-1.2-1.1-2.4-2.1-3.6-3.2C229.4 524.6 230.6 525.6 231.8 526.7z" class="c"/><path d="M536.3 475.7c0.7-1 1.4-1.9 2.1-2.9C537.7 473.7 537 474.7 536.3 475.7z" class="c"/><path d="M543.9 465c0.6-0.9 1.2-1.8 1.8-2.7C545.2 463.1 544.5 464 543.9 465z" class="c"/><path d="M540.2 470.3c0.7-0.9 1.3-1.9 2-2.8C541.5 468.5 540.8 469.4 540.2 470.3z" class="c"/><path d="M595.6 319.6c-0.1 1-0.1 2-0.2 3C595.4 321.6 595.5 320.6 595.6 319.6z" class="c"/><path d="M125.5 307c0 3.6 0.1 7.2 0.3 10.8 3.4 0.8 6.8 1.8 10.3 2.8 8.6 2.5 17.8 5.2 27.9 2.8 19.1-4.6 35.6-8.1 52.3-9.2 17.1-1.1 34.2 0.3 54 5.9 8.9 2.5 17.4 3.2 25.8 2.6 8.8-0.6 17.7-2.6 27.1-5.4 11-3.3 22.5-5.2 34.2-5.4 10.8-0.1 21.6 1.3 32.1 4.7 10 3.2 19 6 27.1 7.5 7.4 1.4 14.2 1.7 20.7 0.1 4.7-1.1 9.9-2.4 14.9-3.7 25.6-6.5 46.1-11.7 69.1-4.2 27.4 8.9 49.1 7.9 74.1 2.8 0.2-4.1 0.3-8.1 0.3-12.2v-27.7H125.5V307z" class="c"/><path d="M595.1 325.8c-0.1 1-0.2 2.1-0.3 3.1C595 327.9 595.1 326.8 595.1 325.8z" class="c"/><path d="M594.6 331.9c-0.1 1.1-0.2 2.1-0.4 3.2C594.4 334 594.5 333 594.6 331.9z" class="c"/><path d="M532.4 480.8c0.8-1 1.5-2 2.3-3C533.9 478.9 533.2 479.9 532.4 480.8z" class="c"/><path d="M453 541.4c-4 1.2-8.3 2.5-13.1 3.8 -8.8 2.4-17.5 2.1-26.6 0.1 -8.2-1.8-16.7-4.9-26-8.4 -6.7-2.5-13.7-3.6-20.7-3.5 -7.9 0.1-15.8 1.7-23.4 4.3 -9.6 3.3-18.7 5.6-27.9 6.4 -9.6 0.8-19.3-0.2-29.5-3.5 -14.3-4.7-26.7-5.9-39.1-5 -1.2 0.1-2.5 0.2-3.8 0.4 12.1 9.7 25 18.5 38.5 25.9 23.8 13.1 51.4 22.8 78.8 22.8 0.2 0 0.3 0 0.5 0 0.2 0 0.3 0 0.5 0 27.4 0 55-9.7 78.8-22.8 14.1-7.7 27.5-16.9 40.1-27.2C471.9 535.8 463 538.4 453 541.4z" class="c"/><path d="M241.9 535.3c-1-0.8-2.1-1.7-3.1-2.5C239.9 533.6 240.9 534.4 241.9 535.3z" class="c"/><path d="M236.8 531c-1.1-0.9-2.1-1.8-3.1-2.7C234.7 529.2 235.7 530.1 236.8 531z" class="c"/><path d="M505.8 475c-16-5.5-32.8-1-53.8 4.7 -4.3 1.2-8.9 2.4-14.6 3.8 -9.4 2.3-18.7 2-28.5 0.1 -9.1-1.8-18.4-4.8-28.6-8.3 -7.7-2.6-15.7-3.7-23.7-3.6 -8.9 0.1-17.9 1.8-26.7 4.5 -10.4 3.2-20.3 5.5-30.4 6.2 -10.4 0.7-20.8-0.2-31.9-3.4 -16.2-4.8-30.2-6.1-44.2-5.1 -11.2 0.8-22.6 3-35.3 6 5.4 7 11 13.8 16.8 20.3 5.4 6 11 11.9 16.9 17.5 7.8-1.7 15.4-3 23-3.6 15-1.2 30.1 0.3 47.4 6 7.3 2.4 14.2 3.1 21.1 2.5 7.3-0.6 14.8-2.5 22.6-5.2 9.7-3.4 19.9-5.4 30.2-5.5 9.6-0.1 19.2 1.3 28.5 4.8 8.4 3.1 16 5.9 22.9 7.4 6 1.3 11.4 1.6 16.4 0.2 4.1-1.1 8.6-2.5 12.8-3.7 20.5-6.1 37.2-11 55.6-6 4.8-4.7 9.4-9.6 13.8-14.5 5.4-6 10.5-12.2 15.5-18.6C523.7 480.3 515 478.2 505.8 475z" class="c"/><path d="M485.8 530.1c-1.8 1.5-3.6 3-5.4 4.5C482.2 533.1 484 531.6 485.8 530.1z" class="c"/><path d="M501.5 515.7c-1.2 1.1-2.3 2.3-3.5 3.4C499.2 518 500.3 516.8 501.5 515.7z" class="c"/><path d="M496.2 520.7c-1.2 1.1-2.3 2.2-3.5 3.3C493.9 522.9 495.1 521.8 496.2 520.7z" class="c"/><path d="M491 525.5c-1.4 1.3-2.9 2.6-4.4 3.8C488.1 528.1 489.6 526.8 491 525.5z" class="c"/><path d="M299.2 343.3c10.2-4.6 23.5 6.2 24 13.7 8.4-5.3 22.2 4.6 22.3 14.1 12.3-5.5 25.2 6.4 24.1 17.2 10.4-5 24.4 2.5 21.5 17.3 9.6-6.2 27.1 6.5 20.7 18.9 -7.8 1.5-15.6 3-23.4 4.5 -31.6-24.7-63.3-49.4-94.9-74.2C295.3 351 297.3 347.2 299.2 343.3z" class="b"/><path d="M298.8 342.4c1.6-0.7 3.2-1.1 4.8-1.2 4.1-0.2 8.3 1.3 11.9 3.6 3.5 2.3 6.4 5.5 7.7 8.6v0c0.3 0.7 0.5 1.4 0.7 2 1.4-0.6 2.9-0.9 4.5-0.9 3 0 6.1 1 8.9 2.7v0c2.8 1.7 5.2 4.1 6.8 6.7 1.1 1.8 1.9 3.7 2.1 5.7 2.4-0.8 4.8-1.1 7.1-0.9 3.5 0.3 6.8 1.7 9.5 3.8 2.7 2.1 4.9 4.8 6.3 7.8 0.9 2 1.4 4.2 1.5 6.3 3-1.1 6.2-1.3 9.1-0.7 2.4 0.5 4.6 1.5 6.5 2.9 1.9 1.4 3.5 3.3 4.6 5.6 1.3 2.6 1.8 5.7 1.4 9.2 2.5-1 5.4-1 8.2-0.4 2.8 0.7 5.6 2.2 7.9 4.2 2.3 2 4.1 4.5 5.1 7.3 1 3.1 1 6.6-0.8 10l-0.2 0.4 -0.5 0.1 -23.4 4.5 -0.4 0.1 -0.4-0.3 -94.9-74.2 -0.6-0.5 0.4-0.7 5.7-11.5 0.9 0.4L298.8 342.4 298.8 342.4zM303.7 343.3c-1.3 0.1-2.6 0.3-3.8 0.8l-5.2 10.5 93.9 73.4 22.4-4.4c1.3-2.8 1.3-5.5 0.5-8 -0.8-2.4-2.4-4.7-4.5-6.4 -2.1-1.8-4.5-3.1-7.1-3.7 -3-0.7-6-0.5-8.4 1l-2 1.3 0.5-2.3c0.8-3.9 0.3-7.3-1-10 -0.9-2-2.3-3.6-4-4.8 -1.7-1.2-3.6-2.1-5.7-2.5 -3.1-0.6-6.4-0.3-9.4 1.2l-1.6 0.8 0.2-1.8c0.2-2.3-0.3-4.7-1.2-6.9 -1.2-2.7-3.2-5.2-5.7-7.1 -2.4-1.9-5.4-3.1-8.5-3.4 -2.4-0.2-4.9 0.1-7.4 1.2l-1.4 0.6 0-1.5c0-2-0.7-4.1-1.9-6.1 -1.5-2.4-3.7-4.5-6.2-6.1l0 0c-2.5-1.5-5.2-2.5-7.8-2.4 -1.7 0-3.3 0.4-4.8 1.3l-1.4 0.9 -0.1-1.7c0-0.9-0.3-1.8-0.7-2.8l0 0c-1.2-2.7-3.8-5.6-7-7.7C311.2 344.4 307.4 343.1 303.7 343.3z"/><path d="M410.2 479.9c-7.4 8.3-14.5 17.6-19.2 38.7 -0.9-4.4 0.5-13 4.3-24 1.4-4.1-5.4-5.7-7.3-0.6 -2.3 5.9-4.1 10.4-7.6 14.3 3.5-9.4 6.6-18.5 5.3-22.8 -5.5 0.9-10.2 3.6-13.9 8.6 1-5.3 5.1-7.6 10.9-12 -9.6-4.7-16.8 4.3-21.5 14.3 -0.9-12.2 8-21.4 18.7-28 -3.1-4.7-3.6-8.7-4.7-13.7 -6-0.1-11.6-1-17.3-3.8 8.4-0.3 14.9 0.8 14.5-4.3 -2.5-3.2-5.9-8.3-8.4-11.5 -8.1 2-14.3-0.3-22.4-1.6 7.6-1.5 12.6-1.6 14.1-5.1 -1.5-3.8-5.1-8.2-9.6-12.9 -10.5 1.4-15.4 0.3-20.2-1 4.9-0.9 10-1.1 14.2-4.3 -3.9-5.1-7.4-8.9-10.9-12.9 -4.1 4.9-11.5 4.3-19.2 3.3 5.1-2 12.4-2.5 12.6-7.9 -4.5-5.5-7.9-7.8-10.9-8.6 -5.3 0.9-9.9 2.5-13.9 1.7 3.4-1.5 7.7-2.3 7.3-6.6 -3.9-4.1-8.1-7.3-12.9-9.3 -4.7 1.7-8.5 1.2-13.5 1.5 8.5-3.3 11.4-2.7 10.6-10.6 4.7 3.2 12-3.1 16.8 0 29.5 18.8 58.2 45.2 86.9 64.7C398.7 443.7 404.5 461.8 410.2 479.9z"/><path d="M429.7 522.4c-0.1-5.1 1.9-5.1 1.8-10.2 4.4 9.8 6.5 14.7 10.9 24.5 -0.4-7.5-0.8-15-1.2-22.5 3.4 7 6.8 13.9 10.2 20.9 -1.4-7.1-2.7-14.2-4.1-21.3 4.1 6.7 8.2 13.4 12.3 20.1 -2.9-8.1-5.7-16.1-8.6-24.2 4.1 5.9 8.2 11.7 12.3 17.6 -1.9-6.3-3.8-12.6-5.7-18.8 5.1 3.7 10.1 7.4 15.2 11.1 -15.5-13.4-24.6-34.6-30.5-58.9 -16.9 3.8-33.3 7.5-50.2 11.3C404.6 488.8 417.2 505.6 429.7 522.4z"/><path d="M428.2 516.7c0-6.1 3.7-3.7 3.5-9.6 3.4 9.3 4 7.2 7.9 16.1 -0.3-5.6-1.2-14.2-1.5-19.9 2.8 5.7 5.4 11.8 8.2 17.6 -1.2-6.1-2.5-13.1-3.6-19.2 2.9 4.8 5.9 9.1 8.8 14 -2.5-7-3.5-9.7-5.9-16.7 4.4 6.4 7.3 9.2 11.7 15.6 -1.4-4.6-3.7-8.6-5.1-13.2 2.1 1.5 6.6 6 8.7 7.5 -9.9-13.5-15.8-30.4-19.7-46.3 -15.4 3.5-30.9 7-46.3 10.5C405.9 487.8 417.1 501.9 428.2 516.7z" class="b"/><path d="M443.3 488c1.6-25.6-2.7-39.9-9.8-49.2 -14.1-17.6-24.8-21.9-30.2-7.8 -11-4.3-21.1 5.3-23.9 14.2 -3.9 12.2 7.7 29 16.8 36.1 2.4 1.9 6 4.7 9.3 6 7.3 2.8 15.9 2.8 26.3 2.8 0.2-6.6 0.1-10.4-1.6-15.7C433.9 480.4 439.6 484.3 443.3 488z"/><path d="M429.6 488.1c1.2-11.3-5.3-21.5-8.1-34.9 -1.7-7.9 3.5-3.6 3.9-0.4 1.5 12.9 3.4 20.3 15.7 30.9 -0.3-25.2-1.6-34.7-9.7-45.2 -3-3.7-14.2-15.1-20-13.4 -2.3 0.6-3.8 4-4.6 6 -0.5 1.3-1 2.7-1.5 4 -1.3-0.5-2.7-1-4-1.6 -8.6-3.4-17.1 4.6-19.5 12.3 -3.4 10.8 10.2 29.4 18.3 35.7C407.8 487.6 419.3 487.8 429.6 488.1z" class="b"/><path d="M411.7 424.5c-6.8-6.6-13.7-12.9-20.9-19.1 -28.7-24.5-60.5-45.4-94.6-63.7 -8.9-8.5-17.7-17.1-26.6-25.6 -4.2-4-9.5-8.8-15.9-5.5 -7 3.6-4.8 17.7-5 24.1 -7.7 7.9-11.2 12.9-12.2 16.1 -1.7 5.5 2.2 4.7 5.9 4.7 10.6-0.2 21.1-0.5 31.7-0.7 43 17.9 74.5 55.7 107.1 95.9 8-2.2 16-4.4 24.1-6.6C407.3 437.6 409.5 431.1 411.7 424.5z" class="b"/><path d="M409.4 425.1c-3-2.9-6.2-5.9-9.4-8.8 -3.5-3.2-7-6.3-10.6-9.3 -14.3-12.2-29.3-23.5-45.1-34 -15.8-10.5-32.2-20.3-49.2-29.4l-0.4-0.3 -26.6-25.6c-2-1.9-4.2-4-6.6-5.1 -2.1-1-4.5-1.3-7 0 -4.6 2.4-4.2 11.4-4 17.9 0.1 1.7 0.1 3.2 0.1 4.5l-0.6 1.3c-3.8 3.9-6.5 7-8.4 9.6 -1.8 2.4-2.8 4.3-3.3 5.7 -0.5 1.4-0.4 1.9-0.2 2 0.6 0.2 1.8 0.2 3 0.1 0.4 0 0.7 0 1.2 0l31.7-0.7 0.8 0.1c21.8 9.1 40.6 23.1 58.1 40 17.1 16.5 32.9 35.7 49 55.4l21.8-5.9L409.4 425.1 409.4 425.1zM402.8 413.3c3.5 3.2 6.9 6.4 10.3 9.7l-1.4 1.4 1.9 0.6 -6.6 19.7 -0.3 1 -1 0.3 -24.1 6.6 -1.3 0.3 -0.8-1c-16.2-20-32.2-39.5-49.5-56.1 -17.1-16.4-35.4-30.2-56.4-39l-31.3 0.7c-0.3 0-0.7 0-1.1 0 -1.5 0.1-3 0.1-4.3-0.3 -2.5-0.8-3.8-2.6-2.4-7 0.6-1.8 1.8-4.1 3.9-6.9 1.9-2.6 4.6-5.7 8.2-9.4 0-1 0-2.2-0.1-3.4 -0.3-7.6-0.7-18.1 6.2-21.6 3.9-2 7.4-1.6 10.6 0 2.9 1.4 5.4 3.7 7.6 5.9l26.4 25.4c17 9.1 33.5 18.9 49.3 29.5 15.9 10.6 31.1 22 45.5 34.3C395.7 407 399.3 410.2 402.8 413.3z"/><path d="M292.5 338.2l-23-22.1c-4.2-4-9.5-8.8-15.9-5.5 -7 3.6-4.8 17.7-5 24.1 2.2 6 9.7 7 23.6 9.1l-12.5-7.8c1.9-0.4 21 6 22.7 5.5l-13.5-10.2C274.3 330.7 284.5 339.2 292.5 338.2z"/><path d="M360.6 426.2c0.5 0.5 7.1 6.9 7.5 7.4 1.6-8.5 14.2-21.3 24.6-25.5 -0.5-0.9-2.5-2.1-3-3C375.2 412.9 365.2 418.5 360.6 426.2z"/><path d="M346.7 410.1c0.5 0.5 5.6 6.1 6 6.7 1.6-8.5 8.3-21.2 18.7-25.5 -0.5-0.9-2.2-2.7-2.6-3.6C360.5 392.3 349.5 401.8 346.7 410.1z"/><path d="M329.8 392.2c0.5 0.5 4.9 5.4 5.4 5.9 1.6-8.5 6-21.7 13.6-24.6 -0.5-0.9-3.7-1.9-4.1-2.8C339 374.1 332.6 383.9 329.8 392.2z"/><path d="M316 380.7c-0.7-0.1-6-4.4-6.7-4.5 6.1-6.1 12.4-13.5 10.5-21.4 1-0.1 3.2 1.6 4.2 1.5C324.5 362.9 321.3 373.7 316 380.7z"/><path d="M295.2 365.8c-0.7-0.1-4.1-3-4.8-3.1 -0.4-9.7 1.3-16.2 4.7-22.4 1-0.1 2.4 2.6 3.4 2.5C296.4 346.3 293.4 348.7 295.2 365.8z"/><circle cx="401.2" cy="459.7" r="2.3"/><path d="M360.6 1.9l0.6-0.7 0.7 0.7c6.5 8.6 22 18.8 39.2 35.4 24.8 24.1 40.1 52.4 42 81.8 1 14.9-0.2 30.3-6.4 45.4 -8.3 20.4-22.9 32.9-40.3 45.4 -13.5 9.8-25.9 19.3-23.5 31.5 1.6 8.2-12.2-2.9-12.2 6.1 0-9-13.9 2.1-12.2-6.1 2.5-12.2-9.9-21.7-23.5-31.5 -17.3-12.5-31.9-25-40.3-45.4 -6.2-15.1-7.3-30.5-6.4-45.4 1.9-29.4 17.2-57.7 42-81.8C337.6 20.7 354.1 10.5 360.6 1.9L360.6 1.9zM360.7 244.8l0 2.8C360.7 246.6 360.7 245.7 360.7 244.8z"/><path d="M360.7 241.4c2.1-1.1 4.6-0.8 6.9-0.4 0.4 0.1 1.3 0.3 2 0.4 -2.4-15 14.4-26.4 24.9-34 16.9-12.2 31.1-24.3 39.2-44.1 5.8-14.1 7.1-28.9 6.1-43.9 -2-31.1-19.2-58.5-41.1-79.7 -7.5-7.3-15.4-13.9-23.4-20.6 -4.5-3.8-10.1-8.2-14.2-12.9 -4.2 4.7-10.1 9.2-14.7 12.9 -8.2 6.6-16.3 13.2-23.9 20.5 -21.9 21.2-39.1 48.7-41.1 79.7 -1 15.1 0.4 29.9 6.1 43.9 8.1 19.8 22.3 31.9 39.2 44.1 10.5 7.6 27.3 19 24.9 34 0.8-0.1 1.6-0.3 2-0.4C356.4 240.5 358.9 240.5 360.7 241.4z" fill="#094"/><path d="M363.5 61.3c-0.1-1.1 0.7-2.1 1.8-2.2 1.1-0.1 2.1 0.7 2.2 1.8 0.6 7.4 1 15.3 1.2 23.5 2.9-2.5 4.7-5.8 5.7-9.4 1.8-6.3 1.1-13.9-1-20.9 -0.3-1.1 0.3-2.2 1.4-2.5 1.1-0.3 2.2 0.3 2.5 1.4 2.3 7.7 3 16 1 23.1 -1.5 5.3-4.5 10-9.4 13.2 0.4 20.7 0 43.4-0.6 66.5 6.4-3.7 12.6-8.5 18.5-14.3 7.1-7 13.9-15.6 20.2-25.7 0.6-0.9 1.8-1.2 2.8-0.6 0.9 0.6 1.2 1.8 0.6 2.8 -6.5 10.4-13.4 19.1-20.8 26.4 -6.8 6.7-13.9 12-21.5 16.1l-0.1 4c-0.5 18.5-0.9 37.1-1 54.5 0 1.1-0.9 2-2 2 -1.1 0-2-0.9-2-2 0-17.6 0.5-36.1 1-54.6l0.1-2.9c-8.6-3-15.8-7.1-22-11.9 -6.3-4.9-11.5-10.5-16.3-16.5 -0.7-0.9-0.6-2.1 0.3-2.8 0.9-0.7 2.1-0.6 2.8 0.3 4.6 5.7 9.7 11.2 15.7 15.9 5.6 4.4 11.9 8.1 19.6 10.9 0.6-22.9 1-45.6 0.6-66.3 -6.5-0.6-9.9-4.2-11.7-9.7 -1.7-5.1-1.8-11.8-1.7-19.3 0-1.1 0.9-2 2-2 1.1 0 2 0.9 2 2 -0.1 7.1 0 13.5 1.5 18 1.3 3.8 3.6 6.3 7.9 6.9C364.5 78 364.1 69.4 363.5 61.3z"/><path d="M167.2 84.1l7.7-24.1 25 0 -20.3-14.8L187.5 21.2l-20.2 14.9L147 21.2l7.8 24 -20.3 14.8 25 0L167.2 84.1 167.2 84.1zM360.2 15l3.9 12.3 12.8 0 -10.4 7.6 4 12.3 -10.4-7.6 -10.4 7.6 4-12.3 -10.4-7.6 12.8 0L360.2 15 360.2 15zM405.2 61.8l3.9 12.3 12.8 0 -10.4 7.6 4 12.3 -10.4-7.6 -10.4 7.6 4-12.3 -10.4-7.6 12.8 0L405.2 61.8 405.2 61.8zM314.4 61.8l3.9 12.3 12.8 0 -10.4 7.6 4 12.3 -10.4-7.6 -10.4 7.6 4-12.3L297.7 74.1l12.8 0L314.4 61.8 314.4 61.8zM405.2 149.3l3.9 12.3 12.8 0 -10.4 7.6 4 12.3 -10.4-7.6 -10.4 7.6 4-12.3 -10.4-7.6 12.8 0L405.2 149.3 405.2 149.3zM314.4 149.3l3.9 12.3 12.8 0 -10.4 7.6 4 12.3 -10.4-7.6 -10.4 7.6 4-12.3 -10.4-7.6 12.8 0L314.4 149.3 314.4 149.3zM554.2 153l7.7 24.1 25 0 -20.3 14.8 7.8 24 -20.2-14.9 -20.2 14.9 7.8-24 -20.3-14.8 25 0L554.2 153 554.2 153zM167.2 153l7.7 24.1 25 0 -20.3 14.8 7.8 24 -20.2-14.9 -20.2 14.9 7.8-24 -20.3-14.8 25 0L167.2 153 167.2 153zM554.2 84.1l7.7-24.1 25 0L566.7 45.2l7.8-24 -20.2 14.9 -20.2-14.9 7.8 24 -20.3 14.8 25 0L554.2 84.1z" class="a"/><polygon points="125.5 241.2 136.2 241.2 136.2 227.7 167.1 227.7 167.1 241.2 188.5 241.2 188.5 227.7 219.3 227.7 219.3 241.2 240.7 241.2 240.7 227.7 271.6 227.7 271.6 241.2 293 241.2 293 227.7 323.8 227.7 323.8 241.2 345.2 241.2 345.2 227.7 376.1 227.7 376.1 241.2 397.5 241.2 397.5 227.7 428.3 227.7 428.3 241.2 449.7 241.2 449.7 227.7 480.6 227.7 480.6 241.2 502 241.2 502 227.7 532.9 227.7 532.9 241.2 554.2 241.2 554.2 227.7 585.1 227.7 585.1 241.2 595.9 241.2 595.9 260.2 125.5 260.2 "/></svg>